<svg width="50" height="93" viewBox="0 0 50 93" fill="none" xmlns="http://www.w3.org/2000/svg">
<path d="M24.9535 92.5744C24.0192 92.5744 23.0913 92.5067 22.1635 92.4486C21.5536 92.4099 20.9664 92.2229 20.3759 92.2229C19.8601 92.2229 19.4675 91.9165 18.9841 91.8972C17.9784 91.8585 17.1025 91.3715 16.1844 91.049C14.3352 90.4008 12.6417 89.4204 11.0618 88.2756C9.46887 87.121 8.01871 85.7956 6.72427 84.3121C5.10866 82.4642 3.75582 80.439 2.69496 78.2299C1.68601 76.124 0.969044 73.9117 0.469436 71.6349C0.22612 70.5223 0.106084 69.3871 0.0379556 68.2422C-0.0366613 66.9458 0.0120019 65.6591 0.0703977 64.3691C0.115817 63.3436 0.316958 62.3277 0.456459 61.3086C0.654356 59.8574 1.04366 58.4578 1.40701 57.0485C1.90013 55.1296 2.57817 53.2753 3.41518 51.479C3.70391 50.8566 3.97643 50.231 4.2976 49.6214C5.20923 47.8929 6.12734 46.1708 7.16873 44.5131C8.06413 43.0845 8.96927 41.6655 10.0074 40.3336C10.1112 40.2014 10.1988 40.0208 10.3967 40.0595C10.5784 40.0982 10.6335 40.2852 10.6887 40.4433C10.9774 41.2753 11.1429 42.1396 11.3343 43.0006C11.5938 44.1745 11.8663 45.3484 12.2654 46.4868C12.3238 46.6545 12.3919 46.6867 12.5444 46.5868C12.6352 46.5287 12.7196 46.4739 12.778 46.3868C13.8778 44.7228 14.9062 43.0168 15.9216 41.2979C16.5932 40.1627 17.2712 39.0307 17.933 37.8891C18.9452 36.1477 19.9477 34.3965 20.9566 32.655C21.8293 31.149 22.6955 29.6397 23.5877 28.1466C23.7466 27.8821 23.9445 27.6112 24.2203 27.4306C25.093 26.8631 25.4855 26.8244 26.2642 27.508C26.5075 27.7241 26.7735 27.9144 27.0233 28.1143C28.7817 29.5011 30.4459 30.9942 32.12 32.4809C34.047 34.1966 35.6788 36.1863 37.4307 38.0633C38.7446 39.4726 39.8477 41.0463 40.9669 42.604C41.778 43.7327 42.4917 44.9259 43.2087 46.1192C43.8575 47.1995 44.4317 48.3186 45.0027 49.4441C45.7716 50.9598 46.3555 52.5529 46.9914 54.1235C47.5527 55.5037 47.9387 56.9324 48.3021 58.3707C48.5908 59.5123 48.8698 60.6669 48.9866 61.8343C49.1456 63.4564 49.3792 65.0721 49.35 66.7168C49.337 67.5102 49.3208 68.3067 49.3143 69.1033C49.3045 70.1933 49.1358 71.2705 48.9055 72.3282C48.6524 73.486 48.367 74.647 47.9647 75.766C47.5137 77.0173 47.0174 78.2524 46.3815 79.4231C44.4252 83.0318 41.752 85.9988 38.3488 88.3143C36.6099 89.4978 34.7445 90.4266 32.7785 91.178C31.1402 91.8036 29.4402 92.1584 27.7111 92.4261C26.793 92.568 25.8748 92.5647 24.9567 92.5712L24.9535 92.5744Z" fill="#F9AF5E"/>
<path d="M13.3528 11.9162C13.3528 11.9162 14.0019 14.8421 15.1209 16.0825C16.2399 17.323 19.0836 18.2691 19.0836 18.2691C19.0836 18.2691 16.1057 18.8605 14.8652 19.9795C13.6247 21.0985 12.7307 24 12.7307 24C12.7307 24 12.1971 20.9699 11.0781 19.7294C9.95909 18.489 6.99985 17.647 6.99985 17.647C6.99985 17.647 10.0299 17.1135 11.2704 15.9945C12.5109 14.8754 13.3528 11.9162 13.3528 11.9162Z" fill="#F9AF5E"/>
<path d="M24.1943 0C24.1943 0 24.8314 1.1137 25.4465 1.47868C26.0616 1.84366 27.3444 1.86918 27.3444 1.86918C27.3444 1.86918 26.202 2.48926 25.837 3.10434C25.4721 3.71942 25.4752 5.0192 25.4752 5.0192C25.4752 5.0192 24.8721 3.84822 24.257 3.48324C23.6419 3.11827 22.3252 3.15002 22.3252 3.15002C22.3252 3.15002 23.4961 2.54694 23.8611 1.93186C24.2261 1.31677 24.1943 0 24.1943 0Z" fill="#F9AF5E"/>
<path d="M37.2451 2.27237C37.2451 2.27237 38.2443 3.97169 39.196 4.52113C40.1476 5.07057 42.1189 5.08623 42.1189 5.08623C42.1189 5.08623 40.3752 6.05983 39.8258 7.01149C39.2764 7.96315 39.305 9.95998 39.305 9.95998C39.305 9.95998 38.357 8.17204 37.4053 7.6226C36.4537 7.07316 34.4313 7.14612 34.4313 7.14612C34.4313 7.14612 36.2192 6.19809 36.7686 5.24643C37.3181 4.29478 37.2451 2.27237 37.2451 2.27237Z" fill="#F9AF5E"/>
</svg>
